<svg width="50" height="50" viewBox="0 0 50 50" fill="none" xmlns="http://www.w3.org/2000/svg">
<g id="arrow-narrow-up">
<path id="Vector" fill-rule="evenodd" clip-rule="evenodd" d="M21.7616 16.0867C21.7616 15.6227 21.946 15.1776 22.2741 14.8495C22.6023 14.5214 23.0473 14.337 23.5113 14.337L33.4108 14.337C33.8748 14.337 34.3199 14.5214 34.648 14.8495C34.9761 15.1776 35.1605 15.6227 35.1605 16.0867L35.1605 25.9862C35.1526 26.445 34.9647 26.8823 34.6374 27.2039C34.3102 27.5255 33.8697 27.7058 33.4108 27.7058C32.9519 27.7058 32.5114 27.5255 32.1842 27.2039C31.8569 26.8823 31.669 26.445 31.6611 25.9862L31.6611 20.3113L17.3241 34.6482C16.9959 34.9764 16.5508 35.1608 16.0867 35.1608C15.6226 35.1608 15.1774 34.9764 14.8493 34.6482C14.5211 34.3201 14.3367 33.8749 14.3367 33.4108C14.3367 32.9467 14.5211 32.5016 14.8493 32.1734L29.1862 17.8364L23.5113 17.8364C23.0473 17.8364 22.6023 17.652 22.2741 17.3239C21.946 16.9957 21.7616 16.5507 21.7616 16.0867Z" fill="white" fill-opacity="0.9"/>
</g>
</svg>
