<svg width="60" height="60" viewBox="0 0 60 60" fill="none" xmlns="http://www.w3.org/2000/svg">
<g id="ep:service">
<path id="Vector" d="M50.625 24C52.5171 25.0895 54.0512 26.7061 55.0403 28.6525C56.0295 30.599 56.4308 32.7912 56.1955 34.9618C55.9601 37.1325 55.0982 39.1877 53.7149 40.8769C52.3316 42.5661 50.4866 43.8163 48.405 44.475C47.6693 47.8137 45.8154 50.801 43.1503 52.9423C40.4852 55.0837 37.1688 56.2506 33.75 56.25H28.125C27.6277 56.25 27.1508 56.0525 26.7992 55.7008C26.4475 55.3492 26.25 54.8723 26.25 54.375C26.25 53.8777 26.4475 53.4008 26.7992 53.0492C27.1508 52.6975 27.6277 52.5 28.125 52.5H33.75C36.0773 52.5007 38.3476 51.7798 40.2482 50.4366C42.1488 49.0934 43.5862 47.194 44.3625 45H43.125C42.6277 45 42.1508 44.8025 41.7992 44.4508C41.4475 44.0992 41.25 43.6223 41.25 43.125V24.375C41.25 23.8777 41.4475 23.4008 41.7992 23.0492C42.1508 22.6975 42.6277 22.5 43.125 22.5H45C45.6075 22.5 46.2037 22.5488 46.7887 22.6425C46.3666 18.4833 44.4157 14.6289 41.3139 11.8261C38.2122 9.02322 34.1805 7.47147 30 7.47147C25.8195 7.47147 21.7878 9.02322 18.686 11.8261C15.5843 14.6289 13.6334 18.4833 13.2112 22.6425C13.8028 22.5478 14.4009 22.5001 15 22.5H16.875C17.3723 22.5 17.8492 22.6975 18.2008 23.0492C18.5524 23.4008 18.75 23.8777 18.75 24.375V43.125C18.75 43.6223 18.5524 44.0992 18.2008 44.4508C17.8492 44.8025 17.3723 45 16.875 45H15C12.5212 45.0028 10.1108 44.1868 8.14348 42.6788C6.17613 41.1708 4.76191 39.0552 4.12055 36.6608C3.47919 34.2664 3.6466 31.7272 4.59677 29.4377C5.54694 27.1482 7.22668 25.2367 9.37499 24C9.37499 18.5299 11.548 13.2839 15.4159 9.41592C19.2838 5.54799 24.5299 3.375 30 3.375C35.4701 3.375 40.7161 5.54799 44.5841 9.41592C48.452 13.2839 50.625 18.5299 50.625 24ZM15 26.25C13.0109 26.25 11.1032 27.0402 9.69669 28.4467C8.29016 29.8532 7.49999 31.7609 7.49999 33.75C7.49999 35.7391 8.29016 37.6468 9.69669 39.0533C11.1032 40.4598 13.0109 41.25 15 41.25V26.25ZM52.5 33.75C52.5 31.7609 51.7098 29.8532 50.3033 28.4467C48.8968 27.0402 46.9891 26.25 45 26.25V41.25C46.9891 41.25 48.8968 40.4598 50.3033 39.0533C51.7098 37.6468 52.5 35.7391 52.5 33.75Z" fill="white"/>
</g>
</svg>
