<svg width="60" height="60" viewBox="0 0 60 60" fill="none" xmlns="http://www.w3.org/2000/svg">
<g id="material-symbols-light:loyalty-outline">
<path id="Vector" d="M32.5 42.3075L40.095 34.4225C40.4583 34.0608 40.735 33.6392 40.925 33.1575C41.1167 32.6775 41.2125 32.1475 41.2125 31.5675C41.2125 30.5025 40.8325 29.5742 40.0725 28.7825C39.3125 27.9908 38.4008 27.595 37.3375 27.595C36.5125 27.595 35.7067 27.8083 34.92 28.235C34.1333 28.6617 33.3267 29.4167 32.5 30.5C31.6333 29.3967 30.8142 28.6367 30.0425 28.22C29.2708 27.8033 28.4775 27.595 27.6625 27.595C26.5992 27.595 25.6875 27.9908 24.9275 28.7825C24.1675 29.5742 23.7875 30.5025 23.7875 31.5675C23.7875 32.1475 23.8833 32.6775 24.075 33.1575C24.265 33.6392 24.5417 34.0608 24.905 34.4225L32.5 42.3075ZM33.895 51.77C33.4167 52.2467 32.8217 52.485 32.11 52.485C31.3983 52.485 30.8042 52.2467 30.3275 51.77L8.3275 29.77C8.06083 29.5033 7.85667 29.21 7.715 28.89C7.57333 28.57 7.50167 28.2317 7.5 27.875V10C7.5 9.33 7.74917 8.74583 8.2475 8.2475C8.7475 7.74917 9.33167 7.5 10 7.5H27.875C28.1983 7.5 28.5208 7.56333 28.8425 7.69C29.1625 7.81667 29.4392 7.99667 29.6725 8.23L51.6725 30.245C52.1825 30.755 52.4458 31.3717 52.4625 32.095C52.4792 32.8167 52.2483 33.4167 51.77 33.895L33.895 51.77ZM32.11 50L49.985 32.125L27.875 10H10V27.875L32.11 50ZM16.25 18.75C16.9383 18.75 17.5275 18.5058 18.0175 18.0175C18.5058 17.5275 18.75 16.9383 18.75 16.25C18.75 15.5617 18.5058 14.9725 18.0175 14.4825C17.5275 13.9942 16.9383 13.75 16.25 13.75C15.5617 13.75 14.9725 13.9942 14.4825 14.4825C13.9942 14.9725 13.75 15.5617 13.75 16.25C13.75 16.9383 13.9942 17.5275 14.4825 18.0175C14.9725 18.5058 15.5617 18.75 16.25 18.75Z" fill="white"/>
</g>
</svg>
