<svg width="60" height="60" viewBox="0 0 60 60" fill="none" xmlns="http://www.w3.org/2000/svg">
<g id="material-symbols-light:verified-outline">
<path id="Vector" d="M22.5575 53.075L18.3825 46.0375L10.4425 44.3275L11.22 36.135L5.86499 30L11.22 23.865L10.4425 15.6725L18.385 13.9625L22.56 6.92249L30 10.0675L37.4425 6.92249L41.6175 13.9625L49.5575 15.6725L48.78 23.865L54.135 30L48.78 36.135L49.5575 44.3275L41.615 46.0375L37.44 53.0775L30 49.9325L22.5575 53.075ZM23.625 49.875L30 47.22L36.405 49.875L40 43.875L46.875 42.345L46.25 35.25L50.875 30L46.25 24.72L46.875 17.625L40 16.125L36.375 10.125L30 12.78L23.595 10.125L20 16.125L13.125 17.625L13.75 24.72L9.12499 30L13.75 35.25L13.125 42.375L20 43.875L23.625 49.875ZM27.375 37.145L39.77 24.75L38 22.95L27.375 33.575L22 28.23L20.23 30L27.375 37.145Z" fill="white"/>
</g>
</svg>
