<svg width="60" height="60" viewBox="0 0 60 60" fill="none" xmlns="http://www.w3.org/2000/svg">
<g id="solar:delivery-linear">
<g id="Group">
<path id="Vector" d="M18.765 38.1625C18.8307 38.3999 18.9424 38.622 19.0939 38.8161C19.2454 39.0103 19.4337 39.1727 19.648 39.2942C19.8622 39.4156 20.0983 39.4936 20.3427 39.5238C20.5872 39.5539 20.8351 39.5357 21.0725 39.47C21.3099 39.4043 21.532 39.2926 21.7261 39.1411C21.9203 38.9896 22.0827 38.8013 22.2041 38.5871C22.3256 38.3728 22.4036 38.1367 22.4338 37.8923C22.4639 37.6478 22.4457 37.3999 22.38 37.1625L18.765 38.1625ZM8 11.8125C7.7617 11.7429 7.51196 11.7213 7.26525 11.749C7.01854 11.7767 6.77979 11.8531 6.56284 11.9738C6.34589 12.0944 6.15507 12.257 6.00144 12.452C5.84781 12.647 5.73444 12.8706 5.66791 13.1098C5.60137 13.3489 5.58299 13.5989 5.61383 13.8453C5.64468 14.0916 5.72413 14.3294 5.84759 14.5447C5.97105 14.7601 6.13604 14.9488 6.33301 15.0999C6.52998 15.2511 6.75499 15.3615 6.995 15.425L8 11.8125ZM50.47 39.3125C50.7141 39.2561 50.9445 39.1512 51.1474 39.0042C51.3504 38.8573 51.5218 38.6711 51.6516 38.4567C51.7814 38.2423 51.8668 38.0041 51.903 37.7562C51.9391 37.5082 51.9252 37.2555 51.862 37.013C51.7989 36.7705 51.6877 36.5432 51.5352 36.3444C51.3827 36.1455 51.1918 35.9793 50.9739 35.8555C50.7561 35.7317 50.5156 35.6528 50.2667 35.6236C50.0179 35.5943 49.7657 35.6152 49.525 35.685L50.47 39.3125ZM25.4925 43.8975C26.2675 46.6975 24.5675 49.655 21.5575 50.4375L22.5 54.065C27.4425 52.7825 30.4625 47.81 29.1075 42.8975L25.4925 43.8975ZM21.5575 50.4375C18.5275 51.225 15.4875 49.465 14.7075 46.64L11.0925 47.64C12.4425 52.5275 17.5775 55.345 22.5 54.065L21.5575 50.4375ZM14.7075 46.64C13.9325 43.84 15.6325 40.8825 18.6425 40.1L17.7 36.475C12.7575 37.7575 9.735 42.7275 11.0925 47.64L14.7075 46.64ZM18.6425 40.1C21.6725 39.3125 24.7125 41.0725 25.4925 43.8975L29.1075 42.8975C27.7575 38.01 22.6225 35.1925 17.7 36.4725L18.6425 40.1ZM22.38 37.1625L17 17.6875L13.385 18.6875L18.765 38.1625L22.38 37.1625ZM12.26 12.9925L8 11.8125L6.995 15.425L11.2575 16.6075L12.26 12.9925ZM17 17.6875C16.6828 16.5621 16.0795 15.5381 15.2488 14.7153C14.4181 13.8925 13.3884 13.299 12.26 12.9925L11.2625 16.6075C12.325 16.9025 13.115 17.71 13.385 18.6875L17 17.6875ZM27.775 45.2125L50.47 39.3125L49.5275 35.685L26.83 41.585L27.775 45.2125Z" fill="white"/>
<path id="Vector_2" d="M23.9125 21.825C22.7 17.4375 22.095 15.2425 23.125 13.515C24.1525 11.785 26.415 11.1975 30.94 10.02L35.74 8.77499C40.265 7.59999 42.5275 7.00999 44.31 8.00749C46.0925 9.00749 46.7 11.2 47.91 15.59L49.1975 20.245C50.41 24.6325 51.0175 26.8275 49.9875 28.5575C48.9575 30.285 46.695 30.875 42.17 32.05L37.37 33.2975C32.845 34.4725 30.5825 35.06 28.8 34.0625C27.0175 33.0625 26.4125 30.87 25.2 26.4825L23.9125 21.825Z" stroke="white" stroke-width="1.5"/>
</g>
</g>
</svg>
